<svg xmlns="http://www.w3.org/2000/svg" viewBox="0 0 512 512"><g id="Layer_2" data-name="Layer 2"><g id="Capa_1" data-name="Capa 1"><path d="M407,0H105A105.12,105.12,0,0,0,0,105V407A105.12,105.12,0,0,0,105,512H407A105.12,105.12,0,0,0,512,407V105A105.12,105.12,0,0,0,407,0ZM268.11,126.46c18.86-24.86,45.08-25,45.08-25s3.9,23.37-14.84,45.89c-20,24-42.74,20.1-42.74,20.1S251.34,148.57,268.11,126.46ZM309.45,388.1c-16.77,0-29.8-11.31-47.47-11.31-18,0-35.88,11.73-47.52,11.73-33.34,0-75.46-72.18-75.46-130.19,0-57.08,35.65-87,69.1-87,21.74,0,38.61,12.54,49.91,12.54,9.7,0,27.71-13.34,51.14-13.34,40.35,0,56.22,28.71,56.22,28.71s-31,15.87-31,54.38C334.33,297,373,312,373,312S346,388.1,309.45,388.1Z"/></g></g></svg>