<svg xmlns="http://www.w3.org/2000/svg" viewBox="0 0 887.74 209.56"><defs><style>.cls-1{fill:#202020;}.cls-2{fill:#564aeb;}</style></defs><title>Recurso 41</title><g id="Capa_2" data-name="Capa 2"><g id="Capa_1-2" data-name="Capa 1"><path class="cls-1" d="M361.08,164H340.92V127.28l2-50.55L309.75,164H295.3L262.17,76.81l2,50.47V164H244V50.25h26.25l32.34,86.56,32.27-86.56h26.25Z"/><path class="cls-1" d="M449.21,162.67V164H429.36a34.77,34.77,0,0,1-2.19-7.89,30.2,30.2,0,0,1-9.53,6.88,29.51,29.51,0,0,1-12.58,2.58,32.74,32.74,0,0,1-14.84-3.28A25.12,25.12,0,0,1,380,153.22a23.67,23.67,0,0,1-3.67-13q0-13.51,10-20.7t28.48-7.19h11.72v-5.47q0-6.72-3.67-10.51T412,92.59a18.23,18.23,0,0,0-7.58,1.48,12.08,12.08,0,0,0-5.08,4.06,9.87,9.87,0,0,0-1.8,5.78H378.11a21.36,21.36,0,0,1,4.34-12.77,30.25,30.25,0,0,1,12.34-9.61,43.9,43.9,0,0,1,18.32-3.63,42,42,0,0,1,17.11,3.28A25.74,25.74,0,0,1,441.82,91Q446,97.59,446,107v37.27Q446,155.88,449.21,162.67Zm-29.57-15.55a18.59,18.59,0,0,0,6.91-7V124.39H416.39q-10.16,0-15.39,3.67a11.88,11.88,0,0,0-5.23,10.31,11,11,0,0,0,3.44,8.4q3.44,3.24,9.61,3.24A20.32,20.32,0,0,0,419.63,147.13Z"/><path class="cls-1" d="M531.94,135.88A27.15,27.15,0,0,1,527,150.8a33.19,33.19,0,0,1-12.5,10.78,37.11,37.11,0,0,1-17.11,4q-12.58,0-21.29-5.62a34.44,34.44,0,0,1-13-15.27,52.52,52.52,0,0,1-4.3-21.6v-2.66a52.13,52.13,0,0,1,4.34-21.6,34.79,34.79,0,0,1,13-15.27q8.67-5.62,21.17-5.62a38.3,38.3,0,0,1,17.85,4,29.93,29.93,0,0,1,12.15,11.29,33.29,33.29,0,0,1,4.61,16.64H513.58a19,19,0,0,0-2.27-8.24,15.42,15.42,0,0,0-5.66-5.9,16.27,16.27,0,0,0-8.55-2.19q-10.39,0-14.61,7.58t-4.22,19.3v2.66q0,26.88,18.91,26.88a18.23,18.23,0,0,0,8.13-1.8,14.84,14.84,0,0,0,5.86-5,14.07,14.07,0,0,0,2.42-7.27Z"/><path class="cls-1" d="M621.4,114.35a28.26,28.26,0,0,1,4.84,16.37q0,16.17-10.39,24.73T586.63,164h-42V50.25h39.06q19.22,0,29.53,7.62T623.59,81a24.66,24.66,0,0,1-4.26,14.22,26.54,26.54,0,0,1-12.23,9.53Q616.55,107.28,621.4,114.35ZM564.92,66.58V98.06h19q9.3,0,14.41-4.14t5.12-11.64q0-8.28-4.77-12t-14.92-3.71ZM601,143.1q5-4.65,5-12.38,0-17.81-18.59-17.81H564.92v34.84h21.72Q596,147.75,601,143.1Z"/><path class="cls-1" d="M710.86,79.47V164H692.5l-.47-8.36q-8.28,9.92-23.67,9.92-13.12,0-20.55-7.66t-7.42-23.83V79.47h19.45v54.77q0,8.28,3.63,11.84a13.09,13.09,0,0,0,9.57,3.55q13.51,0,18.28-9.61V79.47Z"/><path class="cls-1" d="M796.72,109.7V164H777.26V109.55q0-8.51-3.63-12.15T762.5,93.77a18.7,18.7,0,0,0-9.88,2.58,19.12,19.12,0,0,0-6.84,7.19V164H726.33V44h19.45V88.69a30,30,0,0,1,23.36-10.78Q796.72,77.91,796.72,109.7Z"/><path class="cls-1" d="M813.63,98.84a36.46,36.46,0,0,1,13.63-15.35q8.91-5.58,20.94-5.59,12.19,0,21.13,5.59A36.39,36.39,0,0,1,883,98.84,50.12,50.12,0,0,1,887.74,121v1.64A50.12,50.12,0,0,1,883,144.7,36.2,36.2,0,0,1,869.38,160q-8.91,5.55-21,5.55T827.31,160a36.09,36.09,0,0,1-13.67-15.31,50.09,50.09,0,0,1-4.73-22.11V121A50.1,50.1,0,0,1,813.63,98.84Zm19.73,43.44q5,7.66,15,7.66a17.14,17.14,0,0,0,11.13-3.63,21.25,21.25,0,0,0,6.64-9.8,42.15,42.15,0,0,0,2.15-13.91V121a42.25,42.25,0,0,0-2.15-13.87,21.38,21.38,0,0,0-6.68-9.88,17.3,17.3,0,0,0-11.25-3.67,16.86,16.86,0,0,0-11.09,3.67,21.62,21.62,0,0,0-6.6,9.88A42.2,42.2,0,0,0,828.36,121v1.64Q828.36,134.63,833.36,142.28Z"/><path class="cls-2" d="M166.59,0H43A43,43,0,0,0,0,43V166.59a43,43,0,0,0,43,43H166.59a43,43,0,0,0,43-43V43A43,43,0,0,0,166.59,0Zm-55.8,41.46a30.49,30.49,0,0,1,22.37-12.4s1.94,11.6-7.36,22.77c-9.93,11.93-21.21,10-21.21,10S102.47,52.42,110.79,41.46Zm20.52,129.83c-8.32,0-14.79-5.61-23.56-5.61-8.94,0-17.8,5.82-23.58,5.82-16.55,0-37.45-35.82-37.45-64.61,0-28.33,17.69-43.18,34.29-43.18,10.79,0,19.16,6.22,24.77,6.22,4.82,0,13.75-6.62,25.38-6.62,20,0,27.9,14.25,27.9,14.25a30.93,30.93,0,0,0-15.4,27c0,21.56,19.19,29,19.19,29S149.43,171.29,131.31,171.29Z"/></g></g></svg>